<?xml version="1.0" encoding="utf-8"?>
<!-- Generator: Adobe Illustrator 23.0.6, SVG Export Plug-In . SVG Version: 6.00 Build 0)  -->
<svg version="1.1" id="Capa_1" xmlns="http://www.w3.org/2000/svg" xmlns:xlink="http://www.w3.org/1999/xlink" x="0px" y="0px"
	 viewBox="0 0 24 26" style="enable-background:new 0 0 24 26;" xml:space="preserve">
<style type="text/css">
	.st0{filter:url(#filter-2);}
	.st1{fill:none;}
</style>
<filter  filterUnits="objectBoundingBox" height="116.7%" id="filter-2" width="108.3%" x="-4.2%" y="-4.2%">
	<feOffset  dx="0" dy="2" in="SourceAlpha" result="shadowOffsetOuter1"></feOffset>
	
		<feColorMatrix  in="shadowOffsetOuter1" type="matrix" values="0 0 0 0 0.96823281   0 0 0 0 0.78809464   0 0 0 0 0.952825725  0 0 0 1 0">
		</feColorMatrix>
</filter>
<title>arrow</title>
<desc>Created with Sketch.</desc>
<g id="Page-1">
	<g id="gifOS_captura_7_exito" transform="translate(-60.000000, -77.000000)">
		<g id="nav-bar" transform="translate(1.000000, 1.000000)">
			<g id="arrow" transform="translate(71.000000, 90.000000) rotate(-180.000000) translate(-71.000000, -90.000000) ">
				<g class="st0">
					<path id="path-1_1_" d="M80.3,88.7H83v2.7h-2.7V94h-2.7v-2.7c-6.2,0-12.4,0-18.7,0v-2.7c6.2,0,12.4,0,18.7,0V86h2.7V88.7z
						 M75,83.3h2.7V86H75V83.3z M72.3,80.7H75v2.7h-2.7V80.7z M69.7,78h2.7v2.7h-2.7V78z M75,96.7V94h2.7v2.7H75z M72.3,99.3v-2.7
						H75v2.7H72.3z M69.7,102v-2.7h2.7v2.7H69.7z"/>
				</g>
				<g>
					<path class="st1" d="M80.3,88.7H83v2.7h-2.7V94h-2.7v-2.7c-6.2,0-12.4,0-18.7,0v-2.7c6.2,0,12.4,0,18.7,0V86h2.7V88.7z
						 M75,83.3h2.7V86H75V83.3z M72.3,80.7H75v2.7h-2.7V80.7z M69.7,78h2.7v2.7h-2.7V78z M75,96.7V94h2.7v2.7H75z M72.3,99.3v-2.7
						H75v2.7H72.3z M69.7,102v-2.7h2.7v2.7H69.7z"/>
				</g>
			</g>
		</g>
	</g>
</g>
</svg>
